<svg width="24" height="24" viewBox="0 0 24 24" fill="none" xmlns="http://www.w3.org/2000/svg">
<path d="M7 10.001C7 9.44798 7.448 9.00098 8 9.00098H16C16.552 9.00098 17 9.44798 17 10.001C17 10.554 16.552 11.001 16 11.001H8C7.448 11.001 7 10.554 7 10.001ZM9 8.00098H15C15.552 8.00098 16 7.55398 16 7.00098C16 6.44798 15.552 6.00098 15 6.00098H9C8.448 6.00098 8 6.44798 8 7.00098C8 7.55398 8.448 8.00098 9 8.00098ZM22 13.488V16.001C22 18.758 19.757 21.001 17 21.001H7C4.243 21.001 2 18.758 2 16.001V13.488C2 13.056 2.06902 12.6299 2.20502 12.2219L4.14001 6.41895C4.82201 4.37395 6.728 3 8.883 3H15.117C17.272 3 19.179 4.37395 19.86 6.41895L21.795 12.2219C21.931 12.6299 22 13.057 22 13.488ZM4.38702 12.001H9C9.552 12.001 10 12.448 10 13.001C10 14.104 10.897 15.001 12 15.001C13.103 15.001 14 14.104 14 13.001C14 12.448 14.448 12.001 15 12.001H19.613L17.963 7.05298C17.554 5.82498 16.41 5.00098 15.117 5.00098H8.883C7.59 5.00098 6.44599 5.82498 6.03699 7.05298L4.38702 12.001ZM20 16.001V14.001H15.874C15.429 15.725 13.861 17.001 12 17.001C10.139 17.001 8.57198 15.725 8.12598 14.001H4V16.001C4 17.655 5.346 19.001 7 19.001H17C18.654 19.001 20 17.655 20 16.001Z" fill="#A7AEC1"/>
</svg>
